<svg xmlns="http://www.w3.org/2000/svg" xmlns:xlink="http://www.w3.org/1999/xlink" fill="none" version="1.1" width="295.0782470703125" height="286.3912353515625" viewBox="0 0 295.0782470703125 286.3912353515625"><defs><filter id="master_svg0_2_0644" filterUnits="objectBoundingBox" color-interpolation-filters="sRGB" x="-20" y="-16" width="290" height="278"><feFlood flood-opacity="0" result="BackgroundImageFix"/><feColorMatrix in="SourceAlpha" type="matrix" values="0 0 0 0 0 0 0 0 0 0 0 0 0 0 0 0 0 0 127 0"/><feOffset dy="4" dx="0"/><feGaussianBlur stdDeviation="5"/><feColorMatrix type="matrix" values="0 0 0 0 0.03423935920000076 0 0 0 0 0.22123892605304718 0 0 0 0 0.5952380895614624 0 0 0 0.9200000166893005 0"/><feBlend mode="normal" in2="BackgroundImageFix" result="effect1_dropShadow"/><feBlend mode="normal" in="SourceGraphic" in2="effect1_dropShadow" result="shape"/></filter></defs><g filter="url(#master_svg0_2_0644)"><g><path d="M67.9468470703125,24.765729999999998Q68.3346470703125,24.510640000000002,68.6879470703125,24.20968Q69.0413470703125,23.90872,69.3548470703125,23.56649Q69.6683470703125,23.22427,69.9373470703125,22.84599Q70.2063470703125,22.46771,70.4265470703125,22.05916Q70.6468470703125,21.65061,70.8150470703125,21.21801Q70.9832470703125,20.78542,71.09684707031249,20.33539Q71.2104470703125,19.88535,71.2676470703125,19.424749Q71.3248470703125,18.964145,71.3248470703125,18.5Q71.3248470703125,18.315885,71.3158470703125,18.131992Q71.3067470703125,17.9481,71.2887470703125,17.764872Q71.2707470703125,17.581644,71.2436470703125,17.39952Q71.21664707031249,17.2174,71.18074707031249,17.03682Q71.1448470703125,16.85625,71.1001470703125,16.67765Q71.05534707031251,16.49905,71.0019470703125,16.32287Q70.9484470703125,16.14668,70.8864470703125,15.97333Q70.8244470703125,15.79997,70.7539470703125,15.62987Q70.6835470703125,15.459769999999999,70.6047470703125,15.29334Q70.5260470703125,15.1269,70.43924707031249,14.96452Q70.35244707031251,14.802150000000001,70.2578470703125,14.64423Q70.1631470703125,14.48631,70.06084707031249,14.33322Q69.9585470703125,14.18014,69.8489470703125,14.03226Q69.7392470703125,13.88437,69.62244707031249,13.742049999999999Q69.5056470703125,13.599730000000001,69.38194707031249,13.46331Q69.25834707031251,13.326889999999999,69.12814707031251,13.1967Q68.9979470703125,13.066510000000001,68.8615470703125,12.94287Q68.7251470703125,12.81922,68.58284707031251,12.70242Q68.4404470703125,12.585619999999999,68.2926470703125,12.47594Q68.14474707031249,12.36627,67.9916470703125,12.26398Q67.8385470703125,12.16169,67.6806470703125,12.06704Q67.5227470703125,11.972380000000001,67.3603470703125,11.88559Q67.1979470703125,11.7988,67.0315470703125,11.72008Q66.8650470703125,11.641359999999999,66.69494707031251,11.5709Q66.52484707031249,11.50045,66.3515470703125,11.43842Q66.17814707031249,11.37639,66.0020470703125,11.322949999999999Q65.8258470703125,11.2695,65.6472470703125,11.22477Q65.4686470703125,11.18003,65.2880470703125,11.144110000000001Q65.1074470703125,11.10819,64.9253470703125,11.08118Q64.74324707031249,11.05416,64.55994707031249,11.03612Q64.37674707031249,11.01807,64.1928470703125,11.00903Q64.0089470703125,11,63.8248470703125,11Q63.2783470703125,11,62.7376470703125,11.07922Q62.1969470703125,11.15843,61.6734470703125,11.315190000000001Q61.1499470703125,11.47195,60.6547470703125,11.70294Q60.1594470703125,11.93393,59.7028470703125,12.23427Q59.7018470703125,12.23499,59.7007470703125,12.235710000000001Q59.6963470703125,12.2386,59.6919470703125,12.241489999999999Q32.1398070703125,30.3719,21.1750770703125,62.3948Q11.1671470703125,91.6234,17.3790370703125,124.492Q18.248907070312498,136.012,18.2834570703125,159.688Q18.3286070703125,190.624,20.141077070312498,205.889Q23.2441180703125,232.023,33.182147070312496,250.982L34.5604470703125,253.611L37.3650470703125,254.585Q50.6018470703125,259.18100000000004,68.8198470703125,257.277Q78.89534707031251,256.224,96.8017470703125,251.927Q100.0215470703125,251.154,101.5240470703125,250.805Q101.8306470703125,250.734,102.1301470703125,250.637Q102.4296470703125,250.54,102.7200470703125,250.419Q103.0104470703125,250.297,103.2896470703125,250.152Q103.5687470703125,250.006,103.8348470703125,249.838Q104.1008470703125,249.67,104.3517470703125,249.48Q104.6027470703125,249.29,104.8369470703125,249.079Q105.0710470703125,248.869,105.2867470703125,248.64Q105.5025470703125,248.411,105.6982470703125,248.164Q105.8940470703125,247.918,106.0684470703125,247.655Q106.2428470703125,247.393,106.3946470703125,247.118Q106.5464470703125,246.842,106.6747470703125,246.554Q106.8028470703125,246.267,106.9065470703125,245.97Q107.0102470703125,245.673,107.0885470703125,245.368Q107.1669470703125,245.063,107.2195470703125,244.752Q107.2721470703125,244.442,107.2984470703125,244.128Q107.3248470703125,243.815,107.3248470703125,243.5Q107.3248470703125,243.316,107.3158470703125,243.132Q107.3067470703125,242.948,107.2887470703125,242.765Q107.2707470703125,242.582,107.2436470703125,242.4Q107.2166470703125,242.217,107.1807470703125,242.037Q107.1448470703125,241.856,107.1001470703125,241.678Q107.0553470703125,241.499,107.0019470703125,241.323Q106.9484470703125,241.147,106.8864470703125,240.973Q106.8244470703125,240.8,106.7539470703125,240.63Q106.6834470703125,240.46,106.6047470703125,240.293Q106.5260470703125,240.127,106.4392470703125,239.965Q106.3524470703125,239.802,106.2578470703125,239.644Q106.1631470703125,239.486,106.0608470703125,239.333Q105.9585470703125,239.18,105.8489470703125,239.032Q105.7392470703125,238.884,105.6224470703125,238.742Q105.5056470703125,238.6,105.3819470703125,238.463Q105.2583470703125,238.327,105.1281470703125,238.197Q104.9979470703125,238.066,104.8615470703125,237.943Q104.7251470703125,237.819,104.5828470703125,237.702Q104.4404470703125,237.586,104.2925470703125,237.476Q104.1447470703125,237.366,103.9916470703125,237.264Q103.8385470703125,237.162,103.6806470703125,237.067Q103.5227470703125,236.972,103.3603470703125,236.886Q103.1979470703125,236.799,103.0315470703125,236.72Q102.8650470703125,236.641,102.6949470703125,236.571Q102.5248470703125,236.5,102.3515470703125,236.438Q102.1781470703125,236.376,102.0020470703125,236.323Q101.8258470703125,236.27,101.6472470703125,236.225Q101.4686470703125,236.18,101.2880470703125,236.144Q101.1074470703125,236.108,100.9253470703125,236.081Q100.7432470703125,236.054,100.5600470703125,236.036Q100.3767470703125,236.018,100.1928470703125,236.009Q100.0089470703125,236,99.8248470703125,236Q98.9640470703125,236,98.1257470703125,236.195Q96.5731470703125,236.556,93.3017470703125,237.341Q76.3549470703125,241.408,67.2607470703125,242.358Q54.3725470703125,243.705,45.0888470703125,241.266Q37.5858470703125,225.592,35.0364470703125,204.12Q33.3273470703125,189.726,33.2834470703125,159.666Q33.247447070312504,134.99200000000002,32.3019970703125,122.915L32.2693070703125,122.497L32.1903070703125,122.086Q26.5856770703125,92.8979,35.3662470703125,67.2539Q44.671447070312496,40.0777,67.9468470703125,24.765729999999998Z" fill-rule="evenodd" fill="#1677FF" fill-opacity="1"/></g><g><path d="M265.3322470703125,243.962Q265.3322470703125,243.963,265.3322470703125,243.965Q265.4122470703125,244.261,265.5152470703125,244.551Q265.61824707031246,244.84,265.74524707031253,245.12Q265.8712470703125,245.4,266.0202470703125,245.668Q266.1692470703125,245.937,266.3402470703125,246.192Q266.5102470703125,246.448,266.7012470703125,246.688Q266.89224707031246,246.929,267.1022470703125,247.153Q267.31224707031254,247.377,267.5392470703125,247.584Q267.76724707031246,247.79,268.0102470703125,247.977Q268.2542470703125,248.164,268.51224707031247,248.331Q268.7702470703125,248.497,269.04124707031247,248.642Q269.31224707031254,248.787,269.5932470703125,248.909Q269.8752470703125,249.031,270.16624707031247,249.13Q270.4572470703125,249.229,270.7552470703125,249.303Q271.0532470703125,249.378,271.3562470703125,249.428Q271.6592470703125,249.478,271.9652470703125,249.503Q272.2712470703125,249.528,272.5782470703125,249.528Q272.76224707031247,249.528,272.9462470703125,249.519Q273.1302470703125,249.51,273.3132470703125,249.492Q273.4962470703125,249.474,273.6782470703125,249.447Q273.8612470703125,249.42,274.04124707031247,249.384Q274.2222470703125,249.348,274.4002470703125,249.304Q274.5792470703125,249.259,274.7552470703125,249.206Q274.9312470703125,249.152,275.1052470703125,249.09Q275.2782470703125,249.028,275.4482470703125,248.958Q275.61824707031246,248.887,275.7852470703125,248.808Q275.9512470703125,248.73,276.11324707031247,248.643Q276.2762470703125,248.556,276.4342470703125,248.461Q276.5922470703125,248.367,276.74524707031253,248.264Q276.8982470703125,248.162,277.04624707031246,248.053Q277.1942470703125,247.943,277.33624707031254,247.826Q277.4782470703125,247.709,277.61524707031253,247.586Q277.7512470703125,247.462,277.8812470703125,247.332Q278.0112470703125,247.202,278.1352470703125,247.065Q278.25924707031254,246.929,278.3762470703125,246.786Q278.4922470703125,246.644,278.6022470703125,246.496Q278.7122470703125,246.348,278.8142470703125,246.195Q278.91624707031247,246.042,279.0112470703125,245.884Q279.1062470703125,245.726,279.19224707031253,245.564Q279.2792470703125,245.402,279.3582470703125,245.235Q279.43724707031254,245.069,279.5072470703125,244.899Q279.5782470703125,244.728,279.6402470703125,244.555Q279.7022470703125,244.382,279.7552470703125,244.206Q279.8082470703125,244.029,279.8532470703125,243.851Q279.8982470703125,243.672,279.9342470703125,243.492Q279.9702470703125,243.311,279.9972470703125,243.129Q280.0242470703125,242.947,280.0422470703125,242.764Q280.06024707031247,242.58,280.0692470703125,242.396Q280.0782470703125,242.213,280.0782470703125,242.028Q280.0782470703125,241.043,279.8232470703125,240.091Q279.8212470703125,240.083,279.8192470703125,240.076Q277.6722470703125,232.077,266.62024707031253,227.173L266.0802470703125,226.933L265.5082470703125,226.781Q249.6742470703125,222.564,231.1982470703125,227.312Q220.6322470703125,230.027,200.34924707031252,239.012Q181.9087470703125,247.18,172.6962470703125,249.737Q158.0700470703125,253.797,145.8836470703125,251.643L144.40824707031248,251.382L142.9459470703125,251.708Q134.5201470703125,253.587,132.4820470703125,249.407Q129.9577470703125,244.229,134.1427470703125,236.656L134.27134707031252,236.423L134.3832470703125,236.182Q140.3038470703125,223.404,153.2213470703125,209.616Q161.1887470703125,201.111,179.3927470703125,185.099Q191.92734707031252,174.07299999999998,197.7834470703125,168.4281L198.39634707031252,167.8373L198.86114707031248,167.1242Q201.48284707031252,163.10250000000002,212.7642470703125,151.006Q232.7382470703125,129.5882,238.89624707031248,118.4072Q251.9572470703125,94.6922,233.9142470703125,81.9087L231.2672470703125,80.03345L228.0882470703125,80.67805Q217.9632470703125,82.73085,205.1810470703125,80.58857Q197.1054470703125,79.23513,180.4109470703125,74.34694Q160.3432470703125,68.47104,149.7262470703125,66.97749Q131.3224470703125,64.38853,115.5546870703125,68.80662Q115.2616770703125,68.88872,114.9762870703125,68.99429Q114.6908870703125,69.09986,114.4149870703125,69.2282Q114.1390870703125,69.35654,113.8744870703125,69.50681Q113.6098870703125,69.65708,113.3583270703125,69.82829Q113.1067770703125,69.9995,112.8699170703125,70.19053Q112.6330570703125,70.38156,112.4124470703125,70.59115Q112.1918470703125,70.80074,111.9889470703125,71.02751Q111.7860470703125,71.25428,111.60217707031251,71.49674Q111.4183170703125,71.73921,111.2546970703125,71.99577Q111.0910870703125,72.25233,110.9487870703125,72.5213Q110.8064970703125,72.790272,110.6864570703125,73.069888Q110.5664170703125,73.349504,110.4694270703125,73.637926Q110.3724370703125,73.926347,110.2991370703125,74.221677Q110.2258270703125,74.51701,110.1766870703125,74.81731Q110.1275470703125,75.1176,110.1028970703125,75.4209Q110.0782470703125,75.72419,110.0782470703125,76.02848Q110.0782470703125,76.2126,110.0872770703125,76.39649Q110.0963170703125,76.58038,110.1143670703125,76.76361Q110.1324070703125,76.94684,110.1594270703125,77.12896Q110.1864370703125,77.31108,110.2223570703125,77.49166Q110.2582770703125,77.67224,110.3030170703125,77.85083Q110.3477470703125,78.02943,110.4011970703125,78.20562Q110.4546370703125,78.3818,110.5166670703125,78.55515Q110.5786970703125,78.72851,110.6491470703125,78.89861Q110.7196070703125,79.06871,110.7983270703125,79.23514Q110.8770470703125,79.40158,110.9638370703125,79.56396Q111.0506270703125,79.72633,111.1452870703125,79.88425Q111.2399370703125,80.04217,111.3422270703125,80.19526Q111.4445170703125,80.34834000000001,111.5541870703125,80.49622Q111.6638670703125,80.64411,111.7806670703125,80.78643Q111.8974670703125,80.92875,112.0211170703125,81.06517Q112.1447570703125,81.20159,112.27494707031249,81.33178Q112.4051370703125,81.46197,112.5415570703125,81.58561Q112.6779770703125,81.70926,112.8202970703125,81.82606Q112.9626170703125,81.94286,113.1105070703125,82.05254Q113.2583870703125,82.16221,113.4114670703125,82.2645Q113.5645570703125,82.36679,113.7224770703125,82.46144Q113.8803970703125,82.5561,114.0427670703125,82.64289Q114.2051470703125,82.72968,114.3715870703125,82.8084Q114.5380170703125,82.88712,114.7081170703125,82.95758000000001Q114.8782170703125,83.02804,115.0515770703125,83.09006Q115.2249270703125,83.15209,115.4011170703125,83.20553Q115.5772970703125,83.25898,115.7558970703125,83.30371Q115.9344970703125,83.34845,116.1150670703125,83.38437Q116.2956470703125,83.42029,116.4777670703125,83.4473Q116.6598910703125,83.47432,116.8431190703125,83.49237Q117.0263470703125,83.5104,117.2102390703125,83.5194Q117.3941320703125,83.5285,117.5782470703125,83.5285Q118.6091270703125,83.5285,119.6017770703125,83.25035Q119.6052770703125,83.24936,119.6087770703125,83.24838Q132.3483470703125,79.68054,147.6366470703125,81.83123Q157.1742470703125,83.17293,176.1958470703125,88.7425Q193.74634707031248,93.8814,202.7017470703125,95.3822Q216.0055470703125,97.61189999999999,227.3432470703125,96.0168Q229.0662470703125,98.0043,229.1762470703125,100.3989Q229.3702470703125,104.612,225.7572470703125,111.1709Q220.49824707031252,120.72,201.79444707031251,140.7754Q190.49294707031248,152.8936,186.8144470703125,158.1649Q181.1691470703125,163.5592,169.4857470703125,173.836Q150.7377470703125,190.327,142.27474707031251,199.36Q127.8218470703125,214.787,120.8821470703125,229.641Q117.4816731703125,235.899,116.8320860703125,242.596Q116.1088070703125,250.052,118.9991570703125,255.98Q122.4032070703125,262.962,129.6764470703125,265.741Q136.2104470703125,268.23699999999997,144.7243470703125,266.653Q159.6398470703125,268.928,176.7079470703125,264.19100000000003Q186.9790470703125,261.34000000000003,206.4243470703125,252.727Q225.57024707031252,244.246,234.9312470703125,241.84Q249.2612470703125,238.157,261.0802470703125,241.129Q265.0562470703125,242.949,265.3322470703125,243.962Z" fill-rule="evenodd" fill="#1677FF" fill-opacity="1"/></g></g></svg>