<svg xmlns="http://www.w3.org/2000/svg" xmlns:xlink="http://www.w3.org/1999/xlink" fill="none" version="1.1" width="66.923828125" height="148.97393798828125" viewBox="0 0 66.923828125 148.97393798828125"><defs><linearGradient x1="0.0008900538668967783" y1="0.4998278021812439" x2="1.0008158683776855" y2="0.4998278021812439" id="master_svg0__1346"><stop offset="0%" stop-color="#4B44BE" stop-opacity="1"/><stop offset="33.000001311302185%" stop-color="#4B44BE" stop-opacity="1"/><stop offset="100%" stop-color="#5BD3EF" stop-opacity="1"/></linearGradient><linearGradient x1="0" y1="0.4999999701976776" x2="1" y2="0.4999999701976776" id="master_svg1__1347"><stop offset="0%" stop-color="#F87B58" stop-opacity="1"/><stop offset="40.99999964237213%" stop-color="#F89453" stop-opacity="1"/><stop offset="70.99999785423279%" stop-color="#F8C548" stop-opacity="1"/><stop offset="100%" stop-color="#F89C51" stop-opacity="1"/></linearGradient><linearGradient x1="0" y1="0.4998069405555725" x2="0.9999181032180786" y2="0.4998069405555725" id="master_svg2__1348"><stop offset="0%" stop-color="#5ACEED" stop-opacity="1"/><stop offset="38.999998569488525%" stop-color="#5492D8" stop-opacity="1"/><stop offset="49.000000953674316%" stop-color="#5282D3" stop-opacity="1"/><stop offset="83.99999737739563%" stop-color="#538BD6" stop-opacity="1"/><stop offset="100%" stop-color="#5ACEED" stop-opacity="1"/></linearGradient><linearGradient x1="0.019839486107230186" y1="0.49871373176574707" x2="1.0042238235473633" y2="0.49871373176574707" id="master_svg3__1349"><stop offset="0%" stop-color="#906AF2" stop-opacity="1"/><stop offset="11.999999731779099%" stop-color="#E1A1ED" stop-opacity="1"/><stop offset="63.999998569488525%" stop-color="#9B71F1" stop-opacity="1"/><stop offset="93.99999976158142%" stop-color="#7658F4" stop-opacity="1"/><stop offset="100%" stop-color="#7658F4" stop-opacity="1"/></linearGradient><linearGradient x1="1.1829663515090942" y1="0.48434531688690186" x2="0.1914483904838562" y2="0.48434531688690186" id="master_svg4__1350"><stop offset="0%" stop-color="#59C2E9" stop-opacity="1"/><stop offset="100%" stop-color="#5BD3EF" stop-opacity="1"/></linearGradient></defs><g><g><g><path d="M50.94294948364258,132.25115664433594C50.94294948364258,132.25115664433594,45.75409948364258,132.29769154433595,45.75409948364258,132.29769154433595C45.75409948364258,132.29769154433595,43.50481948364258,136.36577294433593,42.38794048364258,138.54136294433593C42.31813548364258,138.68097294433593,42.11647648364258,139.03001294433594,41.97686648364258,139.28209294433594C41.80340448364258,139.66182294433594,41.67331348364258,140.05989294433593,41.58905948364258,140.46877294433594C41.177984483642575,142.59779294433594,41.43781938364258,144.54079294433595,42.853309483642576,145.89809294433593C44.40453948364258,147.38339294433592,45.56795948364258,148.68639294433595,47.98786948364258,147.15459294433595C50.40777948364258,145.62269294433594,51.039909483642575,144.43989294433595,51.090319483642574,140.77513294433595C51.14073948364258,137.11036294433595,50.962349483642576,132.24339294433594,50.962349483642576,132.24339294433594" fill="#4B44BE" fill-opacity="1"/></g><g><path d="M24.521552799682617,132.51881510829506C24.521552799682617,132.51881510829506,19.78643679968262,134.63236325829507,19.78643679968262,134.63236325829507C19.78643679968262,134.63236325829507,19.348219799682617,139.26276325829505,19.196975599682617,141.70207325829506C19.196975599682617,141.86107325829505,19.142674199682617,142.26051325829505,19.115527759682617,142.54753325829506C19.105950239682617,142.96533325829506,19.143681399682617,143.38293325829505,19.227994799682616,143.79233325829506C19.701118799682618,145.90593325829505,20.717182799682618,147.58513325829506,22.55538279968262,148.25983325829506C24.57197279968262,148.99673325829505,26.16198279968262,149.72583325829507,27.763622799682615,147.35633325829505C29.365272799682618,144.98683325829506,29.469972799682616,143.63723325829505,28.04672279968262,140.27106325829507C26.623472799682617,136.90490325829506,24.521552799682617,132.51493325829506,24.521552799682617,132.51493325829506" fill="#4B44BE" fill-opacity="1"/></g></g><g><path d="M25.665255385131836,18.1819C25.665255385131836,18.1819,40.52598538513183,15.3315,40.52598538513183,15.3315C40.52598538513183,15.3315,41.76698538513183,9.12658,41.39468538513184,8.02521C41.02238538513184,6.92384,40.67338538513184,4.50005,38.567585385131835,3.75934C36.46178538513183,3.01862,33.63078538513184,-2.90705,26.568845385131837,1.80092C19.506885385131834,6.50889,23.315155385131835,12.1166,23.315155385131835,12.1166C23.315155385131835,12.1166,25.665255385131836,18.1819,25.665255385131836,18.1819C25.665255385131836,18.1819,25.665255385131836,18.1819,25.665255385131836,18.1819Z" fill="url(#master_svg0__1346)" fill-opacity="1"/></g><g><path d="M36.159324774169924,5.752715587615967C36.159324774169924,5.752715587615967,28.756094774169924,8.610845587615966,27.07301477416992,9.312775587615967C25.389934774169923,10.014705587615968,24.47859477416992,12.046815587615967,24.47859477416992,12.046815587615967C24.47859477416992,12.046815587615967,23.648684774169922,11.554295587615968,23.648684774169922,12.958155587615966C23.648684774169922,14.362015587615966,24.338974774169923,17.522615587615967,24.83924477416992,18.329315587615966C25.70362477416992,19.693115587615967,26.490824774169923,21.104315587615964,27.197114774169922,22.556315587615966C27.87965477416992,24.002915587615966,27.728404774169924,26.182315587615967,27.565524774169923,26.985115587615965C27.255284774169922,28.497615587615968,20.317424774169922,39.088515587615966,20.317424774169922,39.088515587615966C20.317424774169922,39.088515587615966,22.88858477416992,42.086315587615964,22.88858477416992,42.086315587615964C22.88858477416992,42.086315587615964,25.76611477416992,44.626415587615966,25.76611477416992,44.626415587615966C25.76611477416992,44.626415587615966,45.99412477416992,43.075215587615965,45.99412477416992,43.075215587615965C45.99412477416992,43.075215587615965,38.951524774169926,29.284815587615967,37.85012477416992,26.958015587615968C37.35372477416992,25.914815587615966,37.88122477416992,23.382415587615967,38.17202477416993,22.091015587615967C38.43572477416993,20.908215587615967,39.01362477416993,19.422915587615968,39.57592477416992,18.988515587615964C40.13822477416992,18.554215587615968,41.12712477416992,16.603515587615966,41.12712477416992,15.758115587615967C41.12712477416992,14.912695587615966,41.29002477416992,12.240715587615966,40.56482477416992,12.950405587615966C40.37092477416992,13.140425587615967,39.401424774169925,11.627985587615967,39.12602477416992,10.363735587615967C38.652724774169926,8.550325587615967,37.61342477416992,6.9350855876159665,36.159324774169924,5.752715587615967C36.159324774169924,5.752715587615967,36.159324774169924,5.752715587615967,36.159324774169924,5.752715587615967C36.159324774169924,5.752715587615967,36.159324774169924,5.752715587615967,36.159324774169924,5.752715587615967Z" fill="url(#master_svg1__1347)" fill-opacity="1"/></g><g><path d="M6.68178210767746,81.696760625C6.68178210767746,81.696760625,0.5544421076774597,87.195890625,0.5544421076774597,89.518790625C0.5544421076774597,91.841790625,1.6092721076774597,97.972990625,3.61811210767746,101.567990625C5.62695210767746,105.16299062499999,17.96694210767746,132.491690625,19.45224210767746,134.597490625C19.70824210767746,134.961990625,24.98624210767746,133.496090625,24.98624210767746,133.496090625C24.98624210767746,133.496090625,22.53924210767746,122.28459062499999,22.11644210767746,119.748390625C21.69374210767746,117.212090625,15.58194210767746,102.203990625,15.58194210767746,100.722590625C15.58194210767746,99.241190625,16.63674210767746,97.127590625,20.02234210767746,96.495490625C23.40784210767746,95.863290625,30.59004210767746,95.014090625,33.12634210767746,95.859490625C35.66254210767746,96.704890625,46.60644210767746,96.596290625,48.54554210767746,99.031690625C49.77484210767746,100.602290625,48.54554210767746,102.386290625,47.27734210767746,108.339090625C46.00924210767746,114.29189062500001,46.854642107677456,122.513390625,45.799842107677456,125.053490625C44.74504210767746,127.593690625,44.81484210767746,133.06179062500001,45.33444210767746,133.096690625C46.74994210767746,133.185790625,50.58144210767746,133.511590625,50.98094210767746,133.228490625C51.68284210767746,132.728190625,55.73934210767746,123.669090625,56.43734210767746,122.129490625C57.53874210767746,119.709590625,61.01734210767746,106.450490625,61.440042107677456,103.06879062499999C61.86274210767746,99.687090625,63.97634210767746,93.555890625,63.55364210767746,91.865090625C63.13094210767746,90.174190625,53.83134210767746,79.815910625,46.854642107677456,78.334490625C39.87804210767746,76.853067625,18.31594210767746,75.166110625,15.77974210767746,76.856946625C13.24344210767746,78.547780625,6.68178210767746,81.696760625,6.68178210767746,81.696760625C6.68178210767746,81.696760625,6.68178210767746,81.696760625,6.68178210767746,81.696760625Z" fill="url(#master_svg2__1348)" fill-opacity="1"/></g><g style="opacity:0.10000000149011612;"><path d="M24.354324603271486,130.5837265625C24.354324603271486,130.5837265625,22.434684603271485,121.09792656249999,21.887874603271484,118.8370265625C21.263504603271485,116.2581265625,16.299584603271484,104.6239665625,15.562754603271484,100.7226265625C14.849184603271485,96.9647865625,12.712365603271484,102.0915865625,13.348368603271485,105.6865465625C13.984370603271485,109.2815165625,17.575464603271485,115.83162656249999,17.784874603271483,119.0038265625C17.994294603271484,122.1761265625,24.354324603271486,130.5837265625,24.354324603271486,130.5837265625C24.354324603271486,130.5837265625,24.354324603271486,130.5837265625,24.354324603271486,130.5837265625Z" fill="#000000" fill-opacity="1"/></g><g><g><path d="M66.9238,26.88817024230957C66.9238,26.88817024230957,0,26.88817024230957,0,26.88817024230957C0,26.88817024230957,0,76.87647024230958,0,76.87647024230958C0,76.87647024230958,66.9238,76.87647024230958,66.9238,76.87647024230958C66.9238,76.87647024230958,66.9238,26.88817024230957,66.9238,26.88817024230957C66.9238,26.88817024230957,66.9238,26.88817024230957,66.9238,26.88817024230957Z" fill="url(#master_svg3__1349)" fill-opacity="1"/></g></g><g style="opacity:0.07000000029802322;"><path d="M27.47644645349121,29.40108997680664C27.11966445349121,28.931839976806643,26.088090453491212,29.64927997680664,27.01882545349121,28.23766997680664C28.570050453491213,25.875929976806642,27.19334345349121,22.26156997680664,27.19334345349121,22.26156997680664C27.19334345349121,22.26156997680664,27.96896045349121,23.905859976806642,30.68360045349121,23.68480997680664C33.39825045349121,23.463759976806642,33.85974045349121,22.66488997680664,30.86975045349121,25.82550997680664C27.87977045349121,28.98613997680664,27.014949453491212,28.88917997680664,27.468682453491212,29.41658997680664" fill="#000000" fill-opacity="1"/></g><g><g style="opacity:0.07000000029802322;"><g style="opacity:0.07000000029802322;"><g style="opacity:0.07000000029802322;"><path d="M9.536678314208984,83.84895608911133C9.536678314208984,83.84895608911133,52.03637831420898,83.18581008911133,52.03637831420898,83.18581008911133C52.03637831420898,83.18581008911133,43.11687831420898,87.80070008911133,44.43147831420898,90.25551008911133C46.15727831420899,93.48981008911133,42.69407831420899,97.11191008911133,37.81547831420899,96.51471008911133C33.689278314208984,96.01061008911132,32.83607831420898,95.16511008911132,30.276578314208983,95.38231008911133C23.641178314208986,95.94461008911134,19.080598314208984,95.55681008911132,18.421328314208985,94.54851008911133C12.949378314208985,86.14477008911133,9.548312014208985,83.84895608911133,9.548312014208985,83.84895608911133" fill="#000000" fill-opacity="1"/></g></g></g><g style="opacity:0.07000000029802322;"><g style="opacity:0.07000000029802322;"><g style="opacity:0.07000000029802322;"><path d="M19.53847502456665,44.37020962402344C20.26755502456665,45.680999624023436,20.96948502456665,46.41007962402344,20.539015024566652,47.542479624023436C19.689715024566652,49.77623962402344,19.49193502456665,52.421079624023434,22.12902502456665,54.54233962402344C23.90905502456665,55.97333962402344,23.59105502456665,58.245939624023435,24.944505024566652,58.26533962402344C25.99158502456665,58.88193962402344,22.92015502456665,58.69963962402343,22.92015502456665,58.69963962402343C22.92015502456665,58.69963962402343,19.84872502456665,58.69963962402343,19.84872502456665,58.69963962402343C19.84872502456665,58.69963962402343,17.909688024566652,58.59103962402344,17.909688024566652,58.59103962402344C17.93295602456665,58.16063962402344,17.32409902456665,52.45985962402344,17.35124502456665,51.68035962402344C17.44819702456665,48.934689624023434,17.50249302456665,47.32529962402344,17.28144302456665,46.12309962402344C16.89363702456665,44.09099662402344,17.00609542456665,44.854979624023436,17.88253802456665,43.43172462402344C18.20441502456665,42.91594262402344,19.17781502456665,43.90096762402344,19.55011502456665,44.37408962402344" fill="#000000" fill-opacity="1"/></g></g></g></g><g><g><path d="M8.178971545117188,60.708801846923826C8.178971545117188,60.708801846923826,8.147945245117187,58.858967846923825,9.970631245117188,58.76977214692383C11.793321245117188,58.680576646923825,50.535201245117186,58.73875284692383,50.535201245117186,58.73875284692383C50.535201245117186,58.73875284692383,52.23770124511719,58.94041484692383,52.29580124511719,60.328761846923825C52.35400124511719,61.71711184692383,52.35400124511719,82.17001184692383,52.35400124511719,82.17001184692383C52.359001245117184,82.38641184692383,52.31950124511719,82.60151184692383,52.23800124511719,82.80201184692383C52.15650124511719,83.00251184692382,52.03480124511719,83.18411184692383,51.88030124511719,83.33571184692383C51.72580124511719,83.48731184692383,51.54190124511719,83.60561184692384,51.33990124511719,83.68321184692383C51.137901245117185,83.76091184692383,50.92210124511719,83.79621184692382,50.705801245117186,83.78721184692382C49.030501245117186,83.81821184692383,9.536291245117187,83.84531184692383,9.536291245117187,83.84531184692383C9.536291245117187,83.84531184692383,8.062625245117188,83.45751184692384,8.089771742117188,81.99551184692383C8.116918145117188,80.53351184692383,8.178971545117188,60.70493184692383,8.178971545117188,60.70493184692383" fill="#FFFFFF" fill-opacity="1"/></g></g><g><g><path d="M32.05202550842285,69.61277770996094C32.05202550842285,69.61277770996094,28.70525550842285,69.61277770996094,28.70525550842285,69.61277770996094C28.70525550842285,69.61277770996094,28.70525550842285,72.95954770996094,28.70525550842285,72.95954770996094C28.70525550842285,72.95954770996094,32.05202550842285,72.95954770996094,32.05202550842285,72.95954770996094C32.05202550842285,72.95954770996094,32.05202550842285,69.61277770996094,32.05202550842285,69.61277770996094C32.05202550842285,69.61277770996094,32.05202550842285,69.61277770996094,32.05202550842285,69.61277770996094Z" fill="url(#master_svg4__1350)" fill-opacity="1"/></g></g></g></svg>