<svg xmlns="http://www.w3.org/2000/svg" xmlns:xlink="http://www.w3.org/1999/xlink" fill="none" version="1.1" width="108.8185043334961" height="209.02769470214844" viewBox="0 0 108.8185043334961 209.02769470214844"><defs><clipPath id="master_svg0_0_37966"><rect x="0" y="0" width="108.8185043334961" height="209.02769470214844" rx="0"/></clipPath><linearGradient x1="-2.5103133793891175e-7" y1="0.5000001192092896" x2="1" y2="0.5000001192092896" id="master_svg1__1323"><stop offset="0%" stop-color="#5ACEED" stop-opacity="1"/><stop offset="100%" stop-color="#4F68CA" stop-opacity="1"/></linearGradient><linearGradient x1="-8.743770507635418e-8" y1="0.5" x2="1" y2="0.5" id="master_svg2__1324"><stop offset="0%" stop-color="#F87B58" stop-opacity="1"/><stop offset="62.99999952316284%" stop-color="#F89453" stop-opacity="1"/><stop offset="81.00000023841858%" stop-color="#F8C548" stop-opacity="1"/><stop offset="93.99999976158142%" stop-color="#F89952" stop-opacity="1"/><stop offset="100%" stop-color="#F89C51" stop-opacity="1"/></linearGradient><linearGradient x1="-1.6623609155885788e-7" y1="0.5000000596046448" x2="1.0000001192092896" y2="0.5000000596046448" id="master_svg3__1325"><stop offset="0%" stop-color="#E1A1ED" stop-opacity="1"/><stop offset="100%" stop-color="#7658F4" stop-opacity="1"/></linearGradient><linearGradient x1="1.8364963239037024e-7" y1="0.4999995231628418" x2="1.0000007152557373" y2="0.4999995231628418" id="master_svg4__1326"><stop offset="0%" stop-color="#5BD3EF" stop-opacity="1"/><stop offset="100%" stop-color="#4B44BE" stop-opacity="1"/></linearGradient></defs><g clip-path="url(#master_svg0_0_37966)"><g><path d="M82.9522854309082,202.82285909667968C82.8746854309082,200.96138909667968,82.64198543090819,199.06113909667968,82.2541854309082,197.2384490966797C82.2541854309082,197.2384490966797,74.8858854309082,197.3935690966797,74.8858854309082,197.3935690966797C74.8858854309082,197.3935690966797,74.6531854309082,201.42674909667969,71.3180854309082,202.08601909667968C71.3180854309082,202.08601909667968,69.92198543090821,202.51261909667969,69.92198543090821,202.51261909667969C68.17678543090821,202.86164909667968,66.0826854309082,203.4821290966797,64.88048543090821,204.29651909667967C64.8416854309082,203.98627909667968,64.8416854309082,203.7148090966797,64.8416854309082,203.4433390966797C64.7253854309082,201.42674909667969,64.3375854309082,199.44893909667968,63.7170854309082,197.50990609667969C63.7170854309082,197.50990609667969,55.456785430908205,197.82015909667967,55.456785430908205,197.82015909667967C55.456785430908205,197.82015909667967,55.883385430908206,201.69821909667968,52.548225430908204,202.3574890966797C52.548225430908204,202.3574890966797,51.113345430908204,202.74529909667967,51.113345430908204,202.74529909667967C47.972115430908204,203.3657890966797,43.822585430908205,204.8006790966797,45.567708430908205,206.97239909667968C46.9250354309082,208.60114909667968,61.002385430908205,209.3380490966797,63.5231854309082,208.87264909667968C64.49268543090821,208.71754909667968,64.8416854309082,208.0194490966797,64.9579854309082,207.12749909667968C67.9441854309082,208.4460490966797,79.7334854309082,208.75634909667968,82.0214854309082,208.2521490966797C83.8441854309082,207.82554909667968,83.0297854309082,204.9557990966797,82.9522854309082,202.82285909667968C82.9522854309082,202.82285909667968,82.9522854309082,202.82285909667968,82.9522854309082,202.82285909667968Z" fill="#4B44BE" fill-opacity="1"/></g><g><path d="M48.20473541313476,144.41915252685547C47.85571021313476,147.28895252685547,50.06621221313477,162.21955252685547,50.06621221313477,165.05045252685545C50.06621221313477,167.88145252685547,55.379152213134766,198.32465252685546,55.379152213134766,198.32465252685546C55.379152213134766,198.32465252685546,63.79456221313477,197.93665252685548,63.79456221313477,197.93665252685548C63.79456221313477,197.93665252685548,62.12696221313477,153.14485252685546,62.28216221313477,150.97315252685547C62.437262213134765,148.80145252685548,71.66706221313477,122.77955252685547,71.66706221313477,122.77955252685547C71.66706221313477,122.77955252685547,72.32626221313477,129.64375252685548,72.32626221313477,131.85425252685548C72.32626221313477,134.06475252685547,74.88586221313477,197.39365252685548,74.88586221313477,197.39365252685548C74.88586221313477,197.39365252685548,82.21536221313477,197.39365252685548,82.21536221313477,197.39365252685548C82.21536221313477,197.39365252685548,92.64736221313476,104.08731252685547,92.64736221313476,104.08731252685547C92.64736221313476,104.08731252685547,92.45346221313477,102.30340252685546,92.45346221313477,102.30340252685546C92.45346221313477,102.30340252685546,53.94427221313477,96.95167775975547,53.94427221313477,96.95167775975547C53.98305221313477,96.91289712685547,48.55376121313476,141.58825252685546,48.20473541313476,144.41915252685547C48.20473541313476,144.41915252685547,48.20473541313476,144.41915252685547,48.20473541313476,144.41915252685547Z" fill="url(#master_svg1__1323)" fill-opacity="1"/></g><g><path d="M100.09333619232177,84.54194203071594C100.09333619232177,84.54194203071594,92.49233619232177,105.17314203071594,92.49233619232177,105.17314203071594C92.49233619232177,105.17314203071594,91.17373619232178,115.25614203071595,91.17373619232178,115.25614203071595C91.17373619232178,115.25614203071595,97.57253619232178,109.63314203071594,97.57253619232178,109.63314203071594C97.92163619232177,109.32314203071594,98.61963619232178,107.73314203071594,99.00743619232178,106.91814203071594C99.00743619232178,106.91814203071594,102.84673619232177,96.17604203071595,102.84673619232177,96.17604203071595C102.84673619232177,96.17604203071595,105.67813619232177,79.03504203071594,105.67813619232177,79.03504203071594C105.67813619232177,79.03504203071594,101.37303619232178,71.27894203071594,96.33163619232178,62.165442030715944C96.33163619232178,62.165442030715944,100.09333619232177,84.54194203071594,100.09333619232177,84.54194203071594C100.09333619232177,84.54194203071594,100.09333619232177,84.54194203071594,100.09333619232177,84.54194203071594ZM96.33163619232178,62.165442030715944C96.33163619232178,62.165442030715944,96.02133619232178,60.34274203071594,96.02133619232178,60.34274203071594C96.02133619232178,60.34274203071594,95.24573619232177,60.18764203071594,95.24573619232177,60.18764203071594C95.24573619232177,60.18764203071594,96.33163619232178,62.165442030715944,96.33163619232178,62.165442030715944C96.33163619232178,62.165442030715944,96.33163619232178,62.165442030715944,96.33163619232178,62.165442030715944ZM70.54243619232177,10.160612030715942C69.34023619232178,10.044272030715943,68.13803619232178,10.044272030715943,66.93583619232177,10.238172030715942C66.58683619232178,10.315732030715942,65.46223619232177,12.603842030715942,64.68653619232177,14.232542030715942C63.67833619232178,16.32674203071594,63.48433619232178,19.661842030715942,63.48433619232178,21.79484203071594C63.48433619232178,24.470642030715943,66.16023619232178,27.495542030715942,69.49533619232177,29.62854203071594C70.96903619232178,30.559242030715943,70.03833619232178,35.48434203071594,69.30143619232177,35.949742030715946C68.56463619232179,36.41514203071594,54.40973619232178,46.88584203071594,54.40973619232178,46.88584203071594C54.40973619232178,46.88584203071594,44.21043619232178,41.30144203071594,44.21043619232178,41.30144203071594C44.21043619232178,41.30144203071594,16.443436192321776,17.490142030715944,16.443436192321776,17.490142030715944C16.443436192321776,17.490142030715944,15.047336192321778,15.745042030715942,15.047336192321778,15.745042030715942C15.047336192321778,15.745042030715942,11.944896192321778,2.520825030715942,10.781476192321778,1.9778960307159423C8.764886192321777,1.0471600307159425,7.2912161923217775,4.421072030715942,5.429749192321777,7.213282030715942C4.382671192321777,8.803292030715943,4.382671192321777,13.495742030715942,5.623652192321777,14.930642030715942C5.623652192321777,14.930642030715942,11.014166192321778,21.484542030715943,11.014166192321778,21.484542030715943C11.014166192321778,21.484542030715943,40.720136192321775,45.87764203071594,40.720136192321775,45.87764203071594C40.720136192321775,45.87764203071594,48.980436192321775,48.51464203071594,48.980436192321775,48.51464203071594C48.980436192321775,48.51464203071594,58.36533619232178,53.63374203071594,58.36533619232178,53.63374203071594C58.36533619232178,53.63374203071594,95.20693619232178,60.226442030715944,95.20693619232178,60.226442030715944C88.65303619232178,48.35954203071594,81.28473619232177,35.05784203071594,80.62543619232177,33.66164203071594C80.04373619232177,32.53704203071594,79.92733619232177,31.257242030715943,80.23763619232177,30.055042030715942C80.70303619232178,28.38754203071594,81.36223619232177,26.758742030715943,82.17663619232178,25.207542030715942C82.75833619232178,24.393142030715943,83.06863619232178,22.84184203071594,83.22373619232178,21.949942030715942C83.37883619232177,21.057942030715942,83.37883619232177,21.329442030715942,82.60323619232177,22.105042030715943C82.37053619232178,22.298942030715942,81.71133619232178,22.337742030715944,81.40103619232178,20.980442030715942C81.09083619232177,19.623042030715943,77.01883619232177,17.684042030715943,75.04103619232178,15.977742030715943C75.04103619232178,15.977742030715943,72.94683619232178,15.434742030715942,70.81393619232178,14.697942030715943" fill="url(#master_svg2__1324)" fill-opacity="1"/></g><g><path d="M57.512634706115726,36.996647348022464C55.147034706115726,37.22934734802246,53.75093470611572,36.802747348022464,50.958634706115724,36.18234734802246C48.70943470611572,35.63934734802246,44.55983470611572,34.74744734802246,43.12503470611572,34.165747348022464C36.958834706115724,31.72254734802246,16.017314706115723,17.06344734802246,15.164144706115723,15.66733904802246C14.698774706115723,14.89172634802246,11.053396706115723,19.31271734802246,10.820712342115723,21.29053734802246C10.781931706115722,21.83345734802246,17.103174706115723,28.658847348022462,19.740264706115724,31.644947348022463C20.205634706115724,32.18784734802246,24.16123470611572,36.337447348022465,25.596134706115723,37.42324734802246C28.776134706115723,39.82764734802246,36.493534706115724,44.71404734802246,38.626434706115724,46.07134734802246C40.25523470611572,47.11844734802246,45.451834706115726,49.83304734802246,51.346534706115726,51.61704734802246C55.30213470611572,52.81924734802246,56.34923470611572,53.78874734802246,57.59013470611572,56.50334734802246C58.90873470611572,59.41194734802246,53.13043470611572,92.95714734802246,53.13043470611572,92.95714734802246C53.13043470611572,92.95714734802246,52.97523470611572,99.08454734802245,54.177434706115726,99.70504734802246C55.224534706115726,100.24794734802246,67.59563470611573,103.85454734802246,70.58173470611572,104.97914734802247C72.75343470611571,105.32824734802246,74.92513470611573,105.52204734802245,77.13563470611572,105.63844734802247C77.13563470611572,105.63844734802247,92.72543470611572,103.46674734802247,92.72543470611572,103.46674734802247C92.72543470611572,103.46674734802247,92.49273470611573,73.95464734802246,92.76423470611573,69.02954734802246C93.03573470611572,64.18194734802246,92.41523470611573,61.50604734802246,93.26833470611572,62.82464734802246C94.23793470611572,64.29824734802247,98.30983470611572,77.56124734802246,98.30983470611572,79.81054734802247C98.30983470611572,82.05984734802246,93.85013470611572,101.64404734802245,93.85013470611572,101.64404734802245C93.85013470611572,101.64404734802245,99.82233470611573,104.94034734802246,99.82233470611573,104.94034734802246C99.82233470611573,104.94034734802246,107.88863470611572,83.41714734802247,108.35403470611573,80.54734734802246C108.81943470611573,77.67754734802246,108.93573470611572,76.20394734802247,107.61723470611572,73.37294734802246C106.29863470611572,70.54194734802246,98.93033470611573,44.791647348022465,98.93033470611573,44.791647348022465C98.93033470611573,44.791647348022465,98.19353470611573,41.650347348022464,92.80303470611572,40.021547348022466C87.41253470611572,38.39284734802246,82.17713470611572,33.93304734802246,76.12733470611572,37.42324734802246C69.88363470611571,40.991147348022466,67.32413470611573,37.30694734802246,67.32413470611573,37.30694734802246C67.32413470611573,37.30694734802246,61.15803470611572,37.617147348022456,57.706534706115725,37.07424734802246" fill="url(#master_svg3__1325)" fill-opacity="1"/></g><g><path d="M81.6727259765625,3.9556022356109617C82.3707259765625,4.498534235610962,84.4649259765625,6.437564235610962,85.2017259765625,7.019274235610962C86.0549259765625,7.678544235610962,86.5203259765625,8.60928423561096,87.25712597656249,9.811484235610962C87.6449259765625,10.431974235610962,88.2266259765625,12.177104235610962,88.4981259765625,12.875154235610962C90.0493259765625,16.830794235610963,88.5369259765625,18.53709423561096,87.3347259765625,21.36809423561096C85.6671259765625,25.24619423561096,81.9054259765625,25.827894235610962,81.5951259765625,26.370794235610962C78.60902597656249,25.401294235610962,78.2600259765625,25.750294235610962,76.9414259765625,26.176894235610963C75.2739059765625,25.05229423561096,74.5370759765625,23.539794235610962,73.6451259765625,22.76419423561096C74.1880459765625,21.98859423561096,72.5592659765625,14.814194235610962,71.3570659765625,18.57589423561096C70.8529159765625,16.86959423561096,69.3016859765625,13.301694235610961,68.6424159765625,12.836374235610961C67.9831459765625,12.371004235610961,67.2075359765625,11.789294235610962,67.2850979765625,11.517824235610963C67.6341259765625,9.927824235610963,64.9970359765625,10.160504235610961,67.3238809765625,8.492934235610962C69.1853459765625,7.135614235610962,69.9221859765625,3.994383235610962,72.3653659765625,3.761699235610962C73.8778059765625,3.606576235610962,75.8168359765625,3.451454235610962,77.3680259765625,3.218770435610962C78.4539259765625,3.063647235610962,79.3459259765625,3.567796235610962,80.2766259765625,3.6841382356109618C80.78072597656251,3.722918235610962,81.2461259765625,3.916821235610962,81.6727259765625,4.149505235610962" fill="url(#master_svg4__1326)" fill-opacity="1"/></g><g style="opacity:0.07000000029802322;"><g style="opacity:0.07000000029802322;"><g style="opacity:0.07000000029802322;"><g style="opacity:0.07000000029802322;"><g style="opacity:0.07000000029802322;"><g style="opacity:0.07000000029802322;"><path d="M72.98545146484375,118.12592315673828C71.93845146484375,121.15081315673828,67.90525146484376,127.08425315673828,65.30695146484375,130.57452315673828C62.70862146484375,134.0647231567383,54.52590846484375,141.58822315673828,55.03005726484375,150.70162315673826C55.53420546484375,159.81512315673828,61.07984146484375,183.2386231567383,61.07984146484375,185.37152315673828C61.07984146484375,187.5045231567383,59.02446146484375,197.43232315673828,57.47324146484375,200.49602315673826C55.92201346484375,203.5597231567383,56.19348146484375,206.73972315673828,56.96909146484375,206.73972315673828C57.31811146484375,206.73972315673828,58.59788146484375,207.20502315673826,60.38179146484375,206.73972315673828C61.73911146484375,206.3906231567383,63.52302146484375,207.82552315673829,64.25985146484375,207.47652315673827C64.80278146484375,207.2438231567383,64.91912146484376,205.49872315673827,64.91912146484376,205.49872315673827C64.95790146484376,204.76192315673828,64.88034146484375,204.02502315673829,64.64766146484375,203.32702315673828C64.25985146484375,202.2023231567383,63.98839146484375,201.0389231567383,63.79448146484375,199.87552315673827C63.48424146484375,191.3050231567383,62.74741146484375,171.44932315673827,62.90253146484375,170.05322315673828C63.17399146484375,167.4549231567383,61.11862146484375,154.3470231567383,62.98009146484375,147.90942315673828C64.84156146484375,141.47182315673828,72.94675146484374,118.12592315673828,72.98545146484375,118.12592315673828C72.98545146484375,118.12592315673828,72.98545146484375,118.12592315673828,72.98545146484375,118.12592315673828Z" fill="#000000" fill-opacity="1"/></g></g></g></g></g></g><g style="opacity:0.07000000029802322;"><g style="opacity:0.07000000029802322;"><g style="opacity:0.07000000029802322;"><g style="opacity:0.07000000029802322;"><g style="opacity:0.07000000029802322;"><g style="opacity:0.07000000029802322;"><path d="M92.5312580444336,65.61688331176758C92.5312580444336,65.61688331176758,92.4536580444336,96.02091331176757,92.4536580444336,96.02091331176757C92.4536580444336,96.02091331176757,93.22925804443359,102.45851331176758,92.1434580444336,103.15651331176758C91.05755804443359,103.85461331176758,86.7529580444336,104.39751331176757,85.43438804443359,104.39751331176757C84.5424380444336,104.39751331176757,72.52043804443359,105.79361331176759,76.7863030444336,103.66071331176758C78.6865580444336,102.69121331176757,90.7085580444336,95.98211331176758,86.8692580444336,89.35061331176757C83.0299880444336,82.71911331176759,84.8138980444336,74.26501331176758,87.6060580444336,68.52543331176759C90.39835804443359,62.78589331176758,92.5700580444336,58.94661331176758,92.5700580444336,58.94661331176758C92.5700580444336,58.94661331176758,92.5312580444336,65.61688331176758,92.5312580444336,65.61688331176758C92.5312580444336,65.61688331176758,92.5312580444336,65.61688331176758,92.5312580444336,65.61688331176758Z" fill="#000000" fill-opacity="1"/></g></g></g></g></g></g><g><path d="M15.20258525390625,15.706260956609249C15.20258525390625,15.706260956609249,11.20817525390625,18.61476095660925,11.20817525390625,18.61476095660925C10.93671525390625,18.80866095660925,10.58768525390625,18.731160956609248,10.39378525390625,18.49846095660925C10.31622525390625,18.42086095660925,10.27744525390625,18.30456095660925,10.27744525390625,18.18826095660925C10.27744525390625,18.18826095660925,9.85085425390625,12.371160956609248,9.85085425390625,12.371160956609248C9.85085425390625,12.371160956609248,10.89793525390625,10.548460956609249,10.89793525390625,10.548460956609249C11.01427525390625,10.31576095660925,11.09183525390625,10.04426095660925,11.05305525390625,9.81159095660925C11.05305525390625,9.81159095660925,10.74280525390625,6.941830956609249,10.74280525390625,6.941830956609249C10.74280525390625,6.825480956609249,10.70402525390625,6.747920956609249,10.66524525390625,6.631580956609249C10.66524525390625,6.631580956609249,9.23036384390625,1.1247309566092492,9.23036384390625,1.1247309566092492C9.19158315390625,0.8144829566092491,9.42426725390625,0.5430189566092491,9.73451225390625,0.5042379566092491C9.73451225390625,0.5042379566092491,14.07794525390625,0.00008954660924911494,14.07794525390625,0.00008954660924911494C14.38819525390625,-0.03869114339075089,14.69843525390625,0.19399295660924912,14.73721525390625,0.5042379566092491C14.73721525390625,0.5042379566092491,14.73721525390625,0.5430189566092491,14.73721525390625,0.5430189566092491C14.73721525390625,0.5430189566092491,15.474045253906251,15.20206095660925,15.474045253906251,15.20206095660925C15.474045253906251,15.43476095660925,15.39648525390625,15.589860956609249,15.20258525390625,15.706260956609249C15.20258525390625,15.706260956609249,15.20258525390625,15.706260956609249,15.20258525390625,15.706260956609249Z" fill="#FAFAFA" fill-opacity="1"/></g><g style="opacity:0.07000000029802322;"><path d="M69.4179458618164,29.008033766479492C69.4179458618164,29.008033766479492,72.2489358618164,28.46510376647949,73.64503586181641,27.379246766479493C75.0411358618164,26.29338776647949,71.8999058618164,29.434623766479493,70.8916158618164,30.67560376647949C69.8833148618164,31.91658376647949,69.4179458618164,29.008033766479492,69.4179458618164,29.008033766479492C69.4179458618164,29.008033766479492,69.4179458618164,29.008033766479492,69.4179458618164,29.008033766479492Z" fill="#000000" fill-opacity="1"/></g><g style="opacity:0.07000000029802322;"><path d="M87.72210375976563,115.33365950927734C87.72210375976563,115.33365950927734,84.92990375976562,126.65755950927735,82.40915375976563,129.99275950927733C79.73329375976563,133.56055950927734,82.68062375976562,149.96475950927734,80.19866375976562,157.17795950927734C77.83304375976563,164.00335950927735,81.05183375976563,178.81755950927734,80.47012375976563,183.54875950927735C80.00475375976562,187.42685950927734,79.92719375976563,195.76465950927735,77.87182375976562,200.41835950927734C77.17377375976562,202.00835950927734,75.70010375976562,203.17185950927734,75.70010375976562,203.90865950927736C75.70010375976562,208.05805950927734,81.32329375976562,205.38205950927733,81.32329375976562,205.38205950927733C81.32329375976562,205.38205950927733,81.63354375976563,201.69815950927733,81.63354375976563,201.69815950927733C81.63354375976563,201.69815950927733,85.47282375976562,169.12235950927735,85.47282375976562,169.12235950927735C85.47282375976562,169.12235950927735,92.56970375976562,104.47505950927734,92.56970375976562,104.47505950927734C92.56970375976562,104.47505950927734,87.72210375976563,115.33365950927734,87.72210375976563,115.33365950927734C87.72210375976563,115.33365950927734,87.72210375976563,115.33365950927734,87.72210375976563,115.33365950927734Z" fill="#000000" fill-opacity="1"/></g></g></svg>